Coordinates
version=1
nRows=18
nColumns=63
inDegrees=yes

Units are S.I. units (second, meters, Newtons, ...)
If the header above contains a line with 'inDegrees', this indicates whether rotational values are in degrees (yes) or radians (no).

endheader
time	pelvis_tilt	pelvis_list	pelvis_rotation	pelvis_tx	pelvis_ty	pelvis_tz	hip_flexion_r	hip_adduction_r	hip_rotation_r	knee_angle_r	knee_angle_r_beta	ankle_angle_r	subtalar_angle_r	mtp_angle_r	hip_flexion_l	hip_adduction_l	hip_rotation_l	knee_angle_l	knee_angle_l_beta	ankle_angle_l	subtalar_angle_l	mtp_angle_l	L5_S1_Flex_Ext	L5_S1_Lat_Bending	L5_S1_axial_rotation	L4_L5_Flex_Ext	L4_L5_Lat_Bending	L4_L5_axial_rotation	L3_L4_Flex_Ext	L3_L4_Lat_Bending	L3_L4_axial_rotation	L2_L3_Flex_Ext	L2_L3_Lat_Bending	L2_L3_axial_rotation	L1_L2_Flex_Ext	L1_L2_Lat_Bending	L1_L2_axial_rotation	L1_T12_Flex_Ext	L1_T12_Lat_Bending	L1_T12_axial_rotation	Abs_r3	Abs_r2	Abs_r1	Abs_t1	Abs_t2	neck_flexion	neck_bending	neck_rotation	arm_flex_r	arm_add_r	arm_rot_r	elbow_flex_r	pro_sup_r	wrist_flex_r	wrist_dev_r	arm_flex_l	arm_add_l	arm_rot_l	elbow_flex_l	pro_sup_l	wrist_flex_l	wrist_dev_l
0.000000	-0.259025	-2.605850	90.665888	0.243244	0.879236	0.735807	11.017202	-3.808577	-19.609502	16.316571	0.284778	39.899437	16.386718	0.000000	12.779160	3.458798	10.371288	16.053272	0.280182	33.324044	-14.646680	0.000000	0.232853	-0.101723	0.723172	0.432431	-0.135292	0.768370	0.382554	-0.247330	0.768370	0.266128	-0.247330	0.632775	0.216227	-0.207434	0.587577	0.133052	-0.157569	0.542379	1.663245	-1.150714	4.022063	0.000000	0.000000	27.834111	-2.824555	4.067100	16.393527	-6.710479	53.716590	31.217187	50.997937	-3.044777	-9.905822	23.517033	-1.372787	70.570549	30.808680	38.172986	-3.329907	-7.924297
0.017241	-1.126324	-2.347922	89.730760	0.244808	0.879812	0.734099	11.130686	-4.572833	-18.401171	16.926206	0.295418	40.208820	16.216274	0.000000	12.176443	4.180451	9.321368	15.785101	0.275502	34.034052	-14.427545	0.000000	0.217024	-0.222236	1.054581	0.403036	-0.295573	1.120492	0.356549	-0.540344	1.120492	0.248037	-0.540344	0.922758	0.201529	-0.453183	0.856847	0.124008	-0.344243	0.790936	1.550184	-2.513973	5.865262	0.000000	0.000000	27.871082	-3.771222	2.021835	16.075325	-6.086796	53.512375	30.259418	51.002448	-3.908471	-11.198366	23.638899	-1.258179	72.273026	30.035121	39.802519	-3.556916	-8.909349
0.034483	-1.812544	-2.096706	88.963212	0.246135	0.880302	0.732629	11.167911	-5.171175	-17.415580	17.406850	0.303807	40.479229	16.089505	0.000000	11.639893	4.736616	8.394676	15.562644	0.271619	34.624570	-14.160849	0.000000	0.202715	-0.317325	1.316167	0.376463	-0.422042	1.398427	0.333041	-0.771543	1.398427	0.231684	-0.771543	1.151646	0.188242	-0.647088	1.069385	0.115832	-0.491536	0.987125	1.447976	-3.589640	7.320124	0.000000	0.000000	27.893886	-4.476704	0.510785	15.735427	-5.616564	53.248875	29.578768	51.555340	-4.618711	-12.229433	23.745467	-1.255068	73.702504	29.489682	41.420767	-3.480671	-9.687610
0.051724	-2.334283	-1.853867	88.347622	0.247247	0.880712	0.731385	11.137590	-5.617977	-16.629733	17.767640	0.310104	40.711994	16.000711	0.000000	11.167537	5.141775	7.578510	15.384027	0.268502	35.108299	-13.848924	0.000000	0.189922	-0.389391	1.514498	0.352705	-0.517890	1.609154	0.312023	-0.946765	1.609154	0.217062	-0.946765	1.325186	0.176362	-0.794046	1.230530	0.108522	-0.603167	1.135874	1.356595	-4.404870	8.423185	0.000000	0.000000	27.904252	-4.963330	-0.518659	15.379378	-5.284571	52.936230	29.149616	52.579963	-5.185256	-13.016256	23.838269	-1.350616	74.887825	29.150103	43.000603	-3.143998	-10.279971
0.068966	-2.708143	-1.621069	87.868365	0.248169	0.881048	0.730354	11.048436	-5.927612	-16.020633	18.017712	0.314468	40.908448	15.944192	0.000000	10.757402	5.410407	6.860167	15.247373	0.266117	35.497941	-13.494100	0.000000	0.178641	-0.440835	1.656145	0.331754	-0.586311	1.759654	0.293489	-1.071847	1.759654	0.204168	-1.071847	1.449127	0.165886	-0.898951	1.345618	0.102075	-0.682854	1.242109	1.276012	-4.986816	9.210981	0.000000	0.000000	27.903911	-5.253431	-1.119110	15.012726	-5.075605	52.584581	28.946340	53.999670	-5.617865	-13.576070	23.918834	-1.531985	75.857834	28.994127	44.514898	-2.589724	-10.707324
0.086207	-2.950722	-1.399977	87.509820	0.248924	0.881316	0.729525	10.909160	-6.114453	-15.565284	18.166203	0.317060	41.069924	15.914248	0.000000	10.407514	5.556993	6.226947	15.150809	0.264432	35.806200	-13.098708	0.000000	0.168867	-0.474058	1.747675	0.313603	-0.630497	1.856905	0.277431	-1.152624	1.856905	0.192998	-1.152624	1.529216	0.156810	-0.966698	1.419986	0.096490	-0.734315	1.310757	1.206199	-5.362634	9.720046	0.000000	0.000000	27.894593	-5.369337	-1.343178	14.641017	-4.974453	52.204067	28.943317	55.737811	-5.926296	-13.926107	23.988691	-1.786337	76.641373	28.999494	45.936525	-1.860674	-10.990558
0.103448	-3.078619	-1.192254	87.256364	0.249535	0.881521	0.728884	10.728476	-6.192872	-15.240690	18.222250	0.318038	41.197754	15.905179	0.000000	10.115903	5.596013	5.666147	15.092458	0.263413	36.045775	-12.665080	0.000000	0.160597	-0.491459	1.795659	0.298244	-0.653640	1.907888	0.263844	-1.194932	1.907888	0.183546	-1.194932	1.571202	0.149130	-1.002182	1.458973	0.091765	-0.761269	1.346744	1.147126	-5.559477	9.986917	0.000000	0.000000	27.878031	-5.333377	-1.243474	14.269796	-4.965904	51.804828	29.114925	57.717737	-6.120308	-14.083602	24.049371	-2.100833	77.267286	29.143947	47.238357	-0.999675	-11.150565
0.120690	-3.108435	-0.999564	87.092372	0.250026	0.881668	0.728419	10.515095	-6.177242	-15.023854	18.194988	0.317562	41.293270	15.911285	0.000000	9.880594	5.541948	5.165065	15.070445	0.263029	36.229370	-12.195546	0.000000	0.153826	-0.495439	1.806665	0.285671	-0.658933	1.919581	0.252722	-1.204609	1.919581	0.175808	-1.204609	1.580832	0.142843	-1.010298	1.467915	0.087896	-0.767434	1.354999	1.098767	-5.604501	10.048128	0.000000	0.000000	27.855954	-5.167882	-0.872610	13.904609	-5.034745	51.397003	29.435543	59.862801	-6.209661	-14.065787	24.102403	-2.462636	77.764417	29.405227	48.393267	-0.049552	-11.208236
0.137931	-3.056768	-0.823573	87.002224	0.250420	0.881764	0.728119	10.277731	-6.081937	-14.891780	18.093554	0.315792	41.357804	15.926866	0.000000	9.699616	5.409277	4.711001	15.082896	0.263246	36.369687	-11.692438	0.000000	0.148552	-0.488398	1.787262	0.275876	-0.649570	1.898966	0.244056	-1.187491	1.898966	0.169780	-1.187491	1.563854	0.137945	-0.995942	1.452151	0.084883	-0.756529	1.340447	1.061093	-5.524858	9.940216	0.000000	0.000000	27.830093	-4.895182	-0.283196	13.551004	-5.165763	50.990733	29.879548	62.096352	-6.204114	-13.889897	24.149318	-2.858908	78.161608	29.761075	49.374126	0.946869	-11.184462
0.155172	-2.940219	-0.665943	86.970294	0.250742	0.881814	0.727970	10.025095	-5.921330	-14.821472	17.927085	0.312887	41.392690	15.946223	0.000000	9.570995	5.212481	4.291252	15.127934	0.264032	36.479427	-11.158087	0.000000	0.144770	-0.472738	1.744020	0.268852	-0.628741	1.853021	0.237842	-1.149414	1.853021	0.165457	-1.149414	1.526018	0.134433	-0.964007	1.417016	0.082721	-0.732271	1.308015	1.034075	-5.347704	9.699716	0.000000	0.000000	27.802179	-4.537607	0.472156	13.214525	-5.343748	50.596156	30.421319	64.341742	-6.113425	-13.573165	24.191644	-3.276810	78.487704	30.189233	50.153807	1.946760	-11.100134
0.172414	-2.775387	-0.528339	86.980961	0.251015	0.881824	0.727961	9.765900	-5.709793	-14.789933	17.704718	0.309006	41.399259	15.963654	0.000000	9.492760	4.966040	3.893117	15.203685	0.265354	36.571292	-10.594824	0.000000	0.142475	-0.450858	1.683508	0.264590	-0.599641	1.788727	0.234072	-1.096215	1.788727	0.162835	-1.096215	1.473069	0.132302	-0.919389	1.367850	0.081410	-0.698378	1.262631	1.017685	-5.100192	9.363164	0.000000	0.000000	27.773943	-4.117487	1.340836	12.900720	-5.553487	50.223414	31.035233	66.522323	-5.947353	-13.132824	24.230913	-3.703504	78.771547	30.667442	50.705184	2.907298	-10.976142
0.189655	-2.602388	-0.426486	86.952665	0.251379	0.881854	0.728059	9.544372	-5.468073	-14.672151	17.433073	0.304265	41.388773	15.955988	0.000000	9.467908	4.678577	3.333164	15.273983	0.266581	36.745212	-9.832977	0.000000	0.141207	-0.429432	1.629396	0.262235	-0.571144	1.731233	0.231988	-1.044120	1.731233	0.161385	-1.044120	1.425721	0.131124	-0.875697	1.323884	0.080685	-0.665189	1.222047	1.008625	-4.857815	9.062209	0.000000	0.000000	27.742944	-3.675263	2.118278	12.620657	-5.751389	49.901647	31.650469	68.855288	-5.761565	-12.704705	24.297515	-4.123039	79.329756	31.156966	50.823724	3.708854	-10.850791
0.206897	-2.402534	-0.341208	86.990211	0.251650	0.881826	0.728268	9.305621	-5.209203	-14.662138	17.119944	0.298799	41.352040	16.010332	0.000000	9.500367	4.376584	2.859054	15.425832	0.269232	36.947644	-9.084195	0.000000	0.141430	-0.404397	1.560148	0.262650	-0.537849	1.657658	0.232356	-0.983252	1.657658	0.161641	-0.983252	1.365130	0.131332	-0.824647	1.267621	0.080813	-0.626412	1.170111	1.010222	-4.574625	8.677077	0.000000	0.000000	27.724862	-3.242199	2.984017	12.395667	-5.937413	49.650657	32.260638	70.565713	-5.455462	-12.101883	24.348039	-4.491250	79.749626	31.625078	50.675715	4.307669	-10.705935
0.224138	-2.234327	-0.291746	86.977148	0.252024	0.881731	0.728568	9.105569	-4.956738	-14.500876	16.787498	0.292997	41.273008	15.956432	0.000000	9.576097	4.083567	2.328229	15.596574	0.272212	37.172453	-8.314208	0.000000	0.145910	-0.384730	1.504474	0.270969	-0.511691	1.598503	0.239715	-0.935432	1.598503	0.166760	-0.935432	1.316414	0.135492	-0.784541	1.222385	0.083373	-0.595946	1.128355	1.042218	-4.352140	8.367430	0.000000	0.000000	27.718016	-2.835417	3.747337	12.211865	-6.090084	49.482759	32.856586	71.377912	-4.989580	-11.364423	24.339379	-4.832155	79.960854	32.063999	50.496096	4.684313	-10.610708
0.241379	-2.089160	-0.267198	86.948027	0.252436	0.881602	0.728989	8.927695	-4.712060	-14.266392	16.427323	0.286711	41.152626	15.849702	0.000000	9.698211	3.805586	1.790397	15.804873	0.275847	37.418762	-7.559506	0.000000	0.151859	-0.368987	1.459880	0.282018	-0.490752	1.551123	0.249489	-0.897155	1.551123	0.173560	-0.897155	1.277395	0.141016	-0.752438	1.186153	0.086772	-0.571561	1.094910	1.084714	-4.174053	8.119417	0.000000	0.000000	27.720304	-2.468298	4.411078	12.070017	-6.217555	49.373076	33.435635	71.491616	-4.471489	-10.529445	24.350107	-5.120528	80.308464	32.442404	49.851176	4.814029	-10.623091
0.258621	-1.977302	-0.270105	86.909105	0.252872	0.881455	0.729526	8.777578	-4.491977	-13.994494	16.044910	0.280037	41.000856	15.724978	0.000000	9.867065	3.561295	1.271391	16.040670	0.279963	37.670637	-6.861692	0.000000	0.159040	-0.358516	1.425204	0.295353	-0.476826	1.514279	0.261286	-0.871695	1.514279	0.181766	-0.871695	1.247054	0.147684	-0.731085	1.157978	0.090875	-0.555341	1.068903	1.136005	-4.055600	7.926557	0.000000	0.000000	27.729768	-2.131015	4.960752	11.987293	-6.316666	49.383432	33.973208	71.170939	-3.984689	-9.665738	24.347013	-5.359656	80.665066	32.758385	48.932692	4.759116	-10.712362
0.275862	-1.889328	-0.302170	86.863146	0.253304	0.881313	0.730174	8.664169	-4.288562	-13.673333	15.653441	0.273204	40.813270	15.551857	0.000000	10.085211	3.351922	0.827315	16.307468	0.284619	37.892881	-6.323307	0.000000	0.167548	-0.351993	1.401120	0.311153	-0.468151	1.488690	0.275265	-0.855835	1.488690	0.191491	-0.855835	1.225980	0.155585	-0.717784	1.138410	0.095737	-0.545237	1.050840	1.196779	-3.981814	7.792609	0.000000	0.000000	27.745340	-1.833724	5.371610	11.941816	-6.390751	49.432718	34.482533	70.637758	-3.547892	-8.740597	24.333359	-5.525007	81.132785	33.009566	47.429146	4.466830	-10.914823
0.293103	-1.863015	-0.349579	86.749843	0.253818	0.881185	0.730914	8.598418	-4.150201	-13.366316	15.284115	0.266758	40.643273	15.489324	0.000000	10.307486	3.225233	0.513400	16.539447	0.288668	38.028685	-6.096521	0.000000	0.174514	-0.354133	1.402989	0.324090	-0.470997	1.490676	0.286709	-0.861039	1.490676	0.199452	-0.861039	1.227616	0.162054	-0.722148	1.139929	0.099717	-0.548552	1.052242	1.246536	-4.006025	7.803005	0.000000	0.000000	27.758558	-1.576129	5.598733	11.949543	-6.445898	49.584233	34.922625	70.351254	-3.327858	-7.981276	24.366061	-5.638766	81.815052	33.168737	45.622032	4.121777	-11.314809
